<svg width="16" height="16" viewBox="0 0 16 16" fill="none" xmlns="http://www.w3.org/2000/svg">
<mask id="mask0_324_141" style="mask-type:alpha" maskUnits="userSpaceOnUse" x="0" y="0" width="16" height="16">
<path d="M2.66663 14V7.75L1.46663 8.66667L0.666626 7.6L7.99996 2L15.3333 7.6L14.5333 8.65L13.3333 7.75V14H2.66663ZM3.99996 12.6667H12V6.73333L7.99996 3.68333L3.99996 6.73333V12.6667ZM5.33329 10C5.1444 10 4.98607 9.93611 4.85829 9.80833C4.73052 9.68056 4.66663 9.52222 4.66663 9.33333C4.66663 9.14444 4.73052 8.98611 4.85829 8.85833C4.98607 8.73056 5.1444 8.66667 5.33329 8.66667C5.52218 8.66667 5.68052 8.73056 5.80829 8.85833C5.93607 8.98611 5.99996 9.14444 5.99996 9.33333C5.99996 9.52222 5.93607 9.68056 5.80829 9.80833C5.68052 9.93611 5.52218 10 5.33329 10ZM7.99996 10C7.81107 10 7.65274 9.93611 7.52496 9.80833C7.39718 9.68056 7.33329 9.52222 7.33329 9.33333C7.33329 9.14444 7.39718 8.98611 7.52496 8.85833C7.65274 8.73056 7.81107 8.66667 7.99996 8.66667C8.18885 8.66667 8.34718 8.73056 8.47496 8.85833C8.60274 8.98611 8.66663 9.14444 8.66663 9.33333C8.66663 9.52222 8.60274 9.68056 8.47496 9.80833C8.34718 9.93611 8.18885 10 7.99996 10ZM10.6666 10C10.4777 10 10.3194 9.93611 10.1916 9.80833C10.0638 9.68056 9.99996 9.52222 9.99996 9.33333C9.99996 9.14444 10.0638 8.98611 10.1916 8.85833C10.3194 8.73056 10.4777 8.66667 10.6666 8.66667C10.8555 8.66667 11.0138 8.73056 11.1416 8.85833C11.2694 8.98611 11.3333 9.14444 11.3333 9.33333C11.3333 9.52222 11.2694 9.68056 11.1416 9.80833C11.0138 9.93611 10.8555 10 10.6666 10Z" fill="#1F1F1F"/>
</mask>
<g mask="url(#mask0_324_141)">
<rect x="0.666626" y="1.33337" width="16.6667" height="14" fill="#636363"/>
</g>
</svg>
